<svg width="30" height="30" viewBox="0 0 30 30" fill="none" xmlns="http://www.w3.org/2000/svg">
<g id="uil:bag">
<path id="Vector" d="M11.25 17.35H11.2399L11.2298 17.3514C11.1251 17.3656 11.0192 17.3673 10.9142 17.3566C10.8953 17.3547 10.8748 17.3499 10.8522 17.3421L5.71145 15.5736C5.28944 15.4284 4.85 15.742 4.85 16.1883V22.5C4.85 22.8713 4.9975 23.2274 5.26005 23.49C5.5226 23.7525 5.8787 23.9 6.25 23.9H23.75C24.1213 23.9 24.4774 23.7525 24.74 23.49C25.0025 23.2274 25.15 22.8713 25.15 22.5V16.1812C25.15 15.7376 24.7153 15.4243 24.2945 15.5646L19.1048 17.2945C18.9891 17.329 18.8692 17.3477 18.7485 17.35H11.25ZM20.5 7.65H23.75C24.7048 7.65 25.6205 8.02928 26.2956 8.70442C26.9707 9.37955 27.35 10.2952 27.35 11.25V22.5C27.35 23.4548 26.9707 24.3705 26.2956 25.0456C25.6205 25.7207 24.7048 26.1 23.75 26.1H6.25C5.29522 26.1 4.37955 25.7207 3.70442 25.0456C3.02928 24.3705 2.65 23.4548 2.65 22.5V11.25C2.65 10.2952 3.02928 9.37955 3.70442 8.70442C4.37955 8.02928 5.29522 7.65 6.25 7.65H9.5C9.85898 7.65 10.15 7.35899 10.15 7V6.25C10.15 5.62674 10.3976 5.02901 10.8383 4.5883C11.279 4.14759 11.8767 3.9 12.5 3.9H17.5C18.1233 3.9 18.721 4.14759 19.1617 4.5883C19.6024 5.02901 19.85 5.62674 19.85 6.25V7C19.85 7.35899 20.141 7.65 20.5 7.65ZM13 6.1C12.641 6.1 12.35 6.39101 12.35 6.75V7C12.35 7.35899 12.641 7.65 13 7.65H17C17.359 7.65 17.65 7.35899 17.65 7V6.75C17.65 6.39101 17.359 6.1 17 6.1H13ZM24.7055 13.1063C24.971 13.0178 25.15 12.7694 25.15 12.4896V11.25C25.15 10.8787 25.0025 10.5226 24.74 10.2601C24.4774 9.9975 24.1213 9.85 23.75 9.85H6.25C5.8787 9.85 5.5226 9.9975 5.26005 10.2601C4.9975 10.5226 4.85 10.8787 4.85 11.25V12.4896C4.85 12.7694 5.02903 13.0178 5.29445 13.1063L11.3256 15.1166C11.3919 15.1387 11.4613 15.15 11.5311 15.15H18.4689C18.5387 15.15 18.6081 15.1387 18.6744 15.1166L24.7055 13.1063Z" fill="#818181" stroke="#D9D9D9" stroke-width="0.3"/>
</g>
</svg>
