<svg width="76" height="28" viewBox="0 0 76 28" fill="none" xmlns="http://www.w3.org/2000/svg">
<g id="Vector">
<path d="M45.3841 2.26919C45.3841 2.30362 45.3834 2.33805 45.382 2.37177C45.382 2.38231 45.3805 2.39215 45.379 2.40269C45.3783 2.43501 45.3761 2.46593 45.3717 2.49614C45.3724 2.49895 45.3717 2.50106 45.3717 2.50247C45.368 2.53549 45.3644 2.56852 45.3585 2.60014C45.3534 2.63808 45.3468 2.67462 45.3395 2.71186C45.3373 2.7217 45.3351 2.73224 45.3322 2.74277C45.3168 2.81726 45.2963 2.88893 45.2721 2.9606C45.2626 2.99081 45.2524 3.02032 45.2406 3.04983C45.2275 3.08497 45.2136 3.1194 45.1982 3.15313L42.2424 10.245C42.2416 10.2485 42.2394 10.2513 42.238 10.2549L42.175 10.4073C42.175 10.4101 42.1735 10.4116 42.1721 10.4123C41.8316 11.1514 41.0892 11.6827 40.2106 11.7515C40.2091 11.7522 40.2084 11.7522 40.2069 11.7515H40.2055L39.8247 11.7522C39.8233 11.7529 39.8225 11.7529 39.8203 11.7522L26.7788 11.7557C25.54 11.6841 24.5589 10.6982 24.5589 9.49107C24.5589 8.83058 24.8525 8.23613 25.321 7.82227C25.3225 7.82016 25.3247 7.81875 25.3269 7.81735L25.4843 7.69087C25.4851 7.68947 25.4873 7.68736 25.4873 7.68736L34.4564 0.461254C34.7939 0.213919 35.2018 0.0516067 35.6462 0.00663673L43.1334 0.000312291C43.1349 -0.000390364 43.1364 0.000312291 43.1386 0.000312291C44.3891 0.0614433 45.3841 1.05289 45.3841 2.26919Z" fill="#CCFF00"/>
<path d="M38.2025 19.4995C38.2025 19.775 38.152 20.0385 38.0583 20.283C38.0451 20.3174 38.0305 20.3518 38.0158 20.3856L35.6048 26.1712C35.6048 26.1726 35.604 26.1733 35.604 26.1733L35.4744 26.4874C35.473 26.4909 35.4715 26.4937 35.47 26.4966C35.1215 27.1788 34.4282 27.67 33.6059 27.7578L20.4311 27.7606C20.4297 27.7613 20.4289 27.7606 20.4289 27.7606H19.934C18.7449 27.6419 17.8195 26.6771 17.8195 25.5058C17.8195 25.2437 17.8656 24.9908 17.952 24.7561C17.952 24.754 17.9527 24.7526 17.9542 24.7505L18.0245 24.5818L18.0252 24.5797L22.3721 14.0982C22.3721 14.0968 22.3729 14.0968 22.3729 14.0968L22.5405 13.6928L22.5413 13.6907C22.8993 13.0267 23.5883 12.5531 24.3988 12.4723H24.8945C24.896 12.4716 24.8974 12.4723 24.8974 12.4723L26.8252 12.4716C27.0544 12.4941 27.2741 12.5475 27.4791 12.6283L27.9118 12.8517L36.7843 17.4147C36.7843 17.4147 36.7865 17.4147 36.7872 17.4162L37.1072 17.5813C37.1086 17.5813 37.1094 17.582 37.1094 17.582C37.7676 17.9867 38.2025 18.695 38.2025 19.4995Z" fill="#CCFF00"/>
<path d="M25.8992 2.25879C25.8992 2.53353 25.8487 2.79562 25.7557 3.03874C25.7426 3.07317 25.7286 3.1076 25.7133 3.14133L16.0617 26.2973C16.0595 26.3036 16.0566 26.3107 16.0544 26.317C16.0449 26.3416 16.0354 26.3669 16.0237 26.3908C16.02 26.4006 16.0163 26.4097 16.0119 26.4196C15.6832 27.1511 14.9657 27.6837 14.109 27.7757C14.1076 27.7764 14.1054 27.7757 14.1054 27.7757L2.14747 27.7863C0.943776 27.683 0 26.7112 0 25.5293C0 25.2595 0.0490576 25.0009 0.139115 24.7613L0.197688 24.6215L9.83678 1.4929C9.83751 1.49009 9.83898 1.48727 9.83971 1.48446L9.89096 1.36431C10.2241 0.624416 10.9577 0.0882898 11.829 0.00748447H23.8169C24.9899 0.139584 25.8992 1.0973 25.8992 2.25879Z" fill="#CCFF00"/>
<path d="M43.7802 27.9359C43.3645 27.9501 43.0378 27.8433 42.8003 27.6153C42.5627 27.3873 42.4439 27.0952 42.4439 26.7389C42.4439 26.4682 42.533 26.2331 42.7112 26.0336C42.8745 25.8198 43.1195 25.7059 43.4461 25.6916L44.1143 25.6489C44.7676 25.6061 45.2576 25.4137 45.5842 25.0718C45.9257 24.7155 46.0965 24.2097 46.0965 23.5542V13.9359C46.0965 13.4799 46.2153 13.1379 46.4528 12.9099C46.7052 12.6677 47.0616 12.5466 47.5219 12.5466C47.9822 12.5466 48.3311 12.6677 48.5687 12.9099C48.8211 13.1379 48.9473 13.4799 48.9473 13.9359V23.5328C48.9473 24.4305 48.7765 25.1929 48.435 25.8198C48.1084 26.4468 47.6184 26.9384 46.9651 27.2947C46.3118 27.6366 45.5026 27.8361 44.5375 27.8931L43.7802 27.9359Z" fill="#CCFF00"/>
<path d="M57.0652 28C55.9367 28 54.9568 27.7791 54.1253 27.3374C53.2938 26.8957 52.6479 26.2687 52.1876 25.4565C51.7274 24.63 51.4972 23.6611 51.4972 22.5496C51.4972 21.7089 51.6234 20.9608 51.8758 20.3053C52.1431 19.6356 52.5217 19.0656 53.0117 18.5954C53.5017 18.1109 54.0882 17.7476 54.7712 17.5053C55.4542 17.2489 56.2188 17.1206 57.0652 17.1206C58.1936 17.1206 59.1736 17.3415 60.005 17.7832C60.8365 18.2249 61.4824 18.8519 61.9427 19.6641C62.403 20.4763 62.6331 21.4382 62.6331 22.5496C62.6331 23.3903 62.4995 24.1455 62.2322 24.8153C61.9798 25.485 61.6086 26.0621 61.1186 26.5466C60.6287 27.0168 60.0422 27.3802 59.3592 27.6366C58.6762 27.8789 57.9115 28 57.0652 28ZM57.0652 25.9695C57.6145 25.9695 58.0971 25.8412 58.5128 25.5847C58.9286 25.3282 59.2478 24.9506 59.4705 24.4519C59.7081 23.9389 59.8269 23.3048 59.8269 22.5496C59.8269 21.4097 59.5745 20.5618 59.0696 20.0061C58.5648 19.4361 57.8966 19.1511 57.0652 19.1511C56.5158 19.1511 56.0332 19.2794 55.6175 19.5359C55.2018 19.7781 54.8751 20.1557 54.6375 20.6687C54.4148 21.1674 54.3035 21.7944 54.3035 22.5496C54.3035 23.6753 54.5559 24.5303 55.0607 25.1145C55.5655 25.6845 56.2337 25.9695 57.0652 25.9695Z" fill="#CCFF00"/>
<path d="M71.2116 28C70.291 28 69.4818 27.7791 68.7839 27.3374C68.1009 26.8957 67.6481 26.3043 67.4254 25.5634L67.6704 25.029V26.5893C67.6704 27.031 67.5516 27.373 67.314 27.6153C67.0764 27.8433 66.7424 27.9573 66.3118 27.9573C65.8663 27.9573 65.5248 27.8433 65.2873 27.6153C65.0497 27.373 64.9309 27.031 64.9309 26.5893V13.8931C64.9309 13.4514 65.0497 13.1165 65.2873 12.8885C65.5248 12.6606 65.8663 12.5466 66.3118 12.5466C66.7572 12.5466 67.0987 12.6606 67.3363 12.8885C67.5887 13.1165 67.7149 13.4514 67.7149 13.8931V19.4504H67.4476C67.6852 18.7522 68.1455 18.1893 68.8285 17.7618C69.5115 17.3344 70.3058 17.1206 71.2116 17.1206C72.1767 17.1206 73.0156 17.3415 73.7283 17.7832C74.441 18.2249 74.9978 18.8519 75.3987 19.6641C75.7996 20.4621 76 21.4239 76 22.5496C76 23.6611 75.7996 24.63 75.3987 25.4565C74.9978 26.2687 74.4336 26.8957 73.706 27.3374C72.9933 27.7791 72.1618 28 71.2116 28ZM70.4321 25.9695C70.9814 25.9695 71.464 25.8412 71.8797 25.5847C72.2955 25.3282 72.6147 24.9506 72.8374 24.4519C73.075 23.9389 73.1938 23.3048 73.1938 22.5496C73.1938 21.4097 72.9413 20.5618 72.4365 20.0061C71.9317 19.4361 71.2635 19.1511 70.4321 19.1511C69.8827 19.1511 69.4001 19.2794 68.9844 19.5359C68.5687 19.7781 68.242 20.1557 68.0044 20.6687C67.7817 21.1674 67.6704 21.7944 67.6704 22.5496C67.6704 23.6753 67.9228 24.5303 68.4276 25.1145C68.9324 25.6845 69.6006 25.9695 70.4321 25.9695Z" fill="#CCFF00"/>
</g>
</svg>
