<svg width="26" height="30" viewBox="0 0 26 30" fill="none" xmlns="http://www.w3.org/2000/svg">
<g id="List &#226;&#134;&#146; Item &#226;&#134;&#146; Link">
<path id="Vector" d="M16.063 18.0304C16.063 18.0304 16.2745 17.8211 16.6975 17.4026C17.1205 16.9841 17.332 16.1833 17.332 15.0003C17.332 13.8172 16.909 12.8072 16.063 11.9701C15.217 11.1331 14.1961 10.7146 13.0004 10.7146C11.8048 10.7146 10.7839 11.1331 9.93792 11.9701C9.09192 12.8072 8.66892 13.8172 8.66892 15.0003C8.66892 16.1833 9.09192 17.1934 9.93792 18.0304C10.7839 18.8675 11.8048 19.286 13.0004 19.286C14.1961 19.286 15.217 18.8675 16.063 18.0304ZM17.7211 10.3295C17.7211 10.3295 18.0454 10.6504 18.694 11.2921C19.3426 11.9339 19.6669 13.1699 19.6669 15.0003C19.6669 16.8306 19.0183 18.3876 17.7211 19.671C16.4239 20.9545 14.8504 21.5963 13.0004 21.5963C11.1505 21.5963 9.57696 20.9545 8.27976 19.671C6.98255 18.3876 6.33395 16.8306 6.33395 15.0003C6.33395 13.1699 6.98255 11.613 8.27976 10.3295C9.57696 9.04604 11.1505 8.40429 13.0004 8.40429C14.8504 8.40429 16.4239 9.04604 17.7211 10.3295ZM21.0375 7.04827C21.0375 7.04827 21.1136 7.1236 21.2659 7.27427C21.4182 7.42494 21.4943 7.71233 21.4943 8.13644C21.4943 8.56054 21.342 8.92327 21.0375 9.22461C20.7329 9.52595 20.3663 9.67662 19.9377 9.67662C19.509 9.67662 19.1424 9.52595 18.8379 9.22461C18.5333 8.92327 18.381 8.56054 18.381 8.13644C18.381 7.71233 18.5333 7.34961 18.8379 7.04827C19.1424 6.74693 19.509 6.59626 19.9377 6.59626C20.3663 6.59626 20.7329 6.74693 21.0375 7.04827ZM14.2948 4.44503C14.2948 4.44503 14.0988 4.44643 13.7069 4.44922C13.3149 4.45201 13.0794 4.4534 13.0004 4.4534C12.9215 4.4534 12.49 4.45061 11.7061 4.44503C10.9221 4.43945 10.3271 4.43945 9.921 4.44503C9.51492 4.45061 8.97066 4.46735 8.28822 4.49525C7.60577 4.52316 7.02485 4.57896 6.54545 4.66267C6.06605 4.74637 5.66279 4.84961 5.33567 4.97238C4.77167 5.19559 4.27535 5.51925 3.84671 5.94336C3.41807 6.36746 3.09095 6.85854 2.86535 7.41657C2.74126 7.74023 2.63692 8.13923 2.55232 8.61356C2.46772 9.08789 2.41132 9.66267 2.38312 10.3379C2.35492 11.0131 2.338 11.5516 2.33236 11.9534C2.32672 12.3552 2.32672 12.9439 2.33236 13.7196C2.338 14.4953 2.34082 14.9222 2.34082 15.0003C2.34082 15.0784 2.338 15.5053 2.33236 16.281C2.32672 17.0566 2.32672 17.6454 2.33236 18.0472C2.338 18.4489 2.35492 18.9874 2.38312 19.6627C2.41132 20.3379 2.46772 20.9127 2.55232 21.387C2.63692 21.8613 2.74126 22.2603 2.86535 22.584C3.09095 23.142 3.41807 23.6331 3.84671 24.0572C4.27535 24.4813 4.77167 24.805 5.33567 25.0282C5.66279 25.1509 6.06605 25.2542 6.54545 25.3379C7.02485 25.4216 7.60577 25.4774 8.28822 25.5053C8.97066 25.5332 9.51492 25.5499 9.921 25.5555C10.3271 25.5611 10.9221 25.5611 11.7061 25.5555C12.49 25.5499 12.9215 25.5472 13.0004 25.5472C13.0794 25.5472 13.5109 25.5499 14.2948 25.5555C15.0788 25.5611 15.6738 25.5611 16.0799 25.5555C16.486 25.5499 17.0302 25.5332 17.7127 25.5053C18.3951 25.4774 18.976 25.4216 19.4554 25.3379C19.9348 25.2542 20.3381 25.1509 20.6652 25.0282C21.2292 24.805 21.7255 24.4813 22.1542 24.0572C22.5828 23.6331 22.9099 23.142 23.1355 22.584C23.2596 22.2603 23.364 21.8613 23.4486 21.387C23.5332 20.9127 23.5896 20.3379 23.6178 19.6627C23.646 18.9874 23.6629 18.4489 23.6685 18.0472C23.6742 17.6454 23.6742 17.0566 23.6685 16.281C23.6629 15.5053 23.6601 15.0784 23.6601 15.0003C23.6601 14.9222 23.6629 14.4953 23.6685 13.7196C23.6742 12.9439 23.6742 12.3552 23.6685 11.9534C23.6629 11.5516 23.646 11.0131 23.6178 10.3379C23.5896 9.66267 23.5332 9.08789 23.4486 8.61356C23.364 8.13923 23.2596 7.74023 23.1355 7.41657C22.9099 6.85854 22.5828 6.36746 22.1542 5.94336C21.7255 5.51925 21.2292 5.19559 20.6652 4.97238C20.3381 4.84961 19.9348 4.74637 19.4554 4.66267C18.976 4.57896 18.3951 4.52316 17.7127 4.49525C17.0302 4.46735 16.486 4.45061 16.0799 4.44503C15.6738 4.43945 15.0788 4.43945 14.2948 4.44503ZM25.9104 9.69336C25.9668 10.6755 25.995 12.4445 25.995 15.0003C25.995 17.5561 25.9668 19.3251 25.9104 20.3072C25.7976 22.6286 25.0983 24.4255 23.8123 25.6978C22.5264 26.9701 20.7103 27.6621 18.3641 27.7737C17.3715 27.8295 15.5836 27.8574 13.0004 27.8574C10.4173 27.8574 8.62944 27.8295 7.63679 27.7737C5.29055 27.6621 3.47447 26.9701 2.18854 25.6978C0.902621 24.4255 0.20326 22.6286 0.0904595 20.3072C0.0340594 19.3251 0.00585938 17.5561 0.00585938 15.0003C0.00585938 12.4445 0.0340594 10.6755 0.0904595 9.69336C0.20326 7.37193 0.902621 5.57505 2.18854 4.30273C3.47447 3.03041 5.29055 2.33845 7.63679 2.22684C8.62944 2.17104 10.4173 2.14314 13.0004 2.14314C15.5836 2.14314 17.3715 2.17104 18.3641 2.22684C20.7103 2.33845 22.5264 3.03041 23.8123 4.30273C25.0983 5.57505 25.7976 7.37193 25.9104 9.69336Z" fill="white"/>
</g>
</svg>
