<svg width="30" height="30" viewBox="0 0 30 30" fill="none" xmlns="http://www.w3.org/2000/svg">
<g id="fluent:location-24-regular">
<path id="Vector" d="M7.30329 5.70999C9.34446 3.66881 12.1129 2.52209 14.9995 2.52209C17.8862 2.52209 20.6546 3.66881 22.6958 5.70999C24.737 7.75116 25.8837 10.5196 25.8837 13.4062C25.8837 16.2929 24.737 19.0613 22.6958 21.1025L21.212 22.57C20.1183 23.6425 18.6995 25.0225 16.9545 26.71C16.4301 27.2171 15.7291 27.5006 14.9995 27.5006C14.27 27.5006 13.569 27.2171 13.0445 26.71L8.68079 22.465C8.13079 21.9262 7.67329 21.4725 7.30329 21.1025C6.29255 20.0918 5.49079 18.892 4.94379 17.5714C4.39678 16.2509 4.11523 14.8356 4.11523 13.4062C4.11523 11.9769 4.39678 10.5616 4.94379 9.24102C5.49079 7.9205 6.29255 6.72065 7.30329 5.70999ZM21.3695 7.03499C20.5329 6.19838 19.5396 5.53477 18.4464 5.08204C17.3533 4.6293 16.1817 4.39631 14.9985 4.39637C13.8153 4.39643 12.6437 4.62953 11.5506 5.08237C10.4575 5.53522 9.46426 6.19893 8.62766 7.03561C7.79106 7.8723 7.12745 8.86557 6.67471 9.95872C6.22198 11.0519 5.98899 12.2235 5.98905 13.4067C5.9891 14.5899 6.22221 15.7615 6.67505 16.8546C7.12789 17.9477 7.7916 18.9409 8.62829 19.7775L10.4883 21.6125C11.5108 22.6137 12.7983 23.8637 14.3483 25.3625C14.5231 25.5313 14.7566 25.6256 14.9995 25.6256C15.2425 25.6256 15.476 25.5313 15.6508 25.3625L19.8945 21.2375C20.482 20.6612 20.9733 20.175 21.3695 19.7775C23.0589 18.088 24.008 15.7967 24.008 13.4075C24.008 11.0183 23.0589 8.72694 21.3695 7.03749V7.03499ZM14.9995 9.99874C15.4923 9.99874 15.9803 10.0958 16.4356 10.2844C16.8908 10.473 17.3045 10.7494 17.653 11.0978C18.0014 11.4463 18.2778 11.8599 18.4664 12.3152C18.655 12.7705 18.752 13.2585 18.752 13.7512C18.752 14.244 18.655 14.732 18.4664 15.1873C18.2778 15.6425 18.0014 16.0562 17.653 16.4047C17.3045 16.7531 16.8908 17.0295 16.4356 17.2181C15.9803 17.4067 15.4923 17.5037 14.9995 17.5037C14.0163 17.4858 13.0795 17.0826 12.3905 16.381C11.7015 15.6793 11.3155 14.7352 11.3155 13.7519C11.3155 12.7685 11.7015 11.8244 12.3905 11.1228C13.0795 10.4211 14.0163 10.0179 14.9995 9.99999V9.99874ZM14.9995 11.8737C14.5016 11.8737 14.024 12.0715 13.6719 12.4236C13.3198 12.7757 13.122 13.2533 13.122 13.7512C13.122 14.2492 13.3198 14.7267 13.6719 15.0788C14.024 15.4309 14.5016 15.6287 14.9995 15.6287C15.4889 15.6161 15.954 15.4128 16.2957 15.0622C16.6374 14.7116 16.8286 14.2414 16.8286 13.7519C16.8286 13.2623 16.6374 12.7921 16.2957 12.4415C15.954 12.0909 15.4889 11.8876 14.9995 11.875V11.8737Z" fill="#818181"/>
</g>
</svg>
