<svg width="82" height="52" viewBox="0 0 82 52" fill="none" xmlns="http://www.w3.org/2000/svg">
<g id="Frame 1">
<g id="Group 3">
<path id="Vector" d="M81.5097 4.24663C81.5097 4.31106 81.5084 4.3755 81.5057 4.43862C81.5057 4.45834 81.5031 4.47675 81.5005 4.49647C81.4991 4.55696 81.4952 4.61482 81.4873 4.67136C81.4886 4.67662 81.4873 4.68057 81.4873 4.6832C81.4807 4.745 81.4742 4.80681 81.4636 4.86598C81.4544 4.93699 81.4426 5.00537 81.4295 5.07506C81.4255 5.09347 81.4216 5.11319 81.4163 5.13292C81.3887 5.2723 81.3519 5.40643 81.3085 5.54056C81.2914 5.5971 81.273 5.65233 81.2519 5.70756C81.2283 5.77331 81.2033 5.83774 81.1757 5.90086L75.8671 19.1728C75.8658 19.1794 75.8618 19.1847 75.8592 19.1912L75.7461 19.4766C75.7461 19.4819 75.7435 19.4845 75.7408 19.4858C75.1294 20.8691 73.796 21.8633 72.218 21.9921C72.2154 21.9934 72.214 21.9934 72.2114 21.9921H72.2088L71.525 21.9934C71.5224 21.9948 71.521 21.9948 71.5171 21.9934L48.6166 22H48.6127H48.0972H48.0946C45.8696 21.8659 44.1075 20.021 44.1075 17.7619C44.1075 16.5258 44.6349 15.4133 45.4764 14.6388C45.4791 14.6349 45.483 14.6323 45.487 14.6296L45.7697 14.3929C45.771 14.3903 45.7749 14.3864 45.7749 14.3864L61.5587 1.13541L61.8835 0.863214C62.4897 0.400345 63.2222 0.0965881 64.0204 0.0124302H64.9185L77.0374 0.000595093H77.0387H77.4674C77.47 -0.00071907 77.4727 0.000595093 77.4766 0.000595093C79.7226 0.114998 81.5097 1.97042 81.5097 4.24663Z" fill="#CCFF00"/>
<path id="Vector_2" d="M68.6115 36.492C68.6115 37.0074 68.5208 37.5006 68.3524 37.9582C68.3288 38.0226 68.3025 38.087 68.2762 38.1501L63.9459 48.9776C63.9459 48.9802 63.9446 48.9815 63.9446 48.9815L63.7119 49.5693C63.7092 49.5759 63.7066 49.5812 63.704 49.5864C63.078 50.8633 61.8328 51.7824 60.356 51.9468H59.3921H59.3895L36.6942 51.952C36.6916 51.9534 36.6903 51.952 36.6903 51.952H35.804H35.8013C33.6658 51.7298 32.0037 49.9244 32.0037 47.7323C32.0037 47.2418 32.0865 46.7684 32.2417 46.3292C32.2417 46.3253 32.243 46.3227 32.2456 46.3187L32.3719 46.0031L32.3732 45.9992L40.1802 26.3838C40.1802 26.3812 40.1815 26.3812 40.1815 26.3812L40.4827 25.6251L40.484 25.6211C41.127 24.3785 42.3644 23.4922 43.8201 23.341H44.7104C44.713 23.3397 44.7156 23.341 44.7156 23.341L47.3022 23.3397H47.3061H48.1766H48.178C48.5896 23.3817 48.984 23.4817 49.3522 23.6329L50.1294 24.0511L66.0644 32.5905C66.0644 32.5905 66.0683 32.5905 66.0696 32.5931L66.6443 32.9021C66.6469 32.9021 66.6482 32.9034 66.6482 32.9034C67.8304 33.6608 68.6115 34.9863 68.6115 36.492Z" fill="#CCFF00"/>
<path id="Vector_3" d="M46.5149 4.22718C46.5149 4.74133 46.4242 5.23181 46.2572 5.68679C46.2335 5.75122 46.2085 5.81566 46.1809 5.87878L28.8468 49.2136C28.8429 49.2254 28.8376 49.2386 28.8337 49.2504C28.8166 49.2964 28.7995 49.3438 28.7784 49.3885C28.7718 49.4069 28.7653 49.424 28.7574 49.4424C28.167 50.8113 26.8783 51.808 25.3397 51.9803C25.3371 51.9816 25.3345 51.9816 25.3332 51.9803L24.389 51.9816L4.63795 52H3.85685C1.69502 51.8067 0 49.9881 0 47.7763C0 47.2714 0.0881071 46.7875 0.24985 46.3391L0.355046 46.0774L17.6668 2.79386C17.6681 2.7886 17.6708 2.78334 17.6721 2.77808L17.7641 2.55322C18.3624 1.16856 19.68 0.165237 21.2449 0.014019H42.7751C44.8817 0.26123 46.5149 2.05353 46.5149 4.22718Z" fill="#CCFF00"/>
</g>
</g>
</svg>
